<?xml version="1.0" standalone="no"?>
<!DOCTYPE svg PUBLIC "-//W3C//DTD SVG 20010904//EN"
 "http://www.w3.org/TR/2001/REC-SVG-20010904/DTD/svg10.dtd">
<svg version="1.0" xmlns="http://www.w3.org/2000/svg"
 width="700.000000pt" height="700.000000pt" viewBox="0 0 700.000000 700.000000"
 preserveAspectRatio="xMidYMid meet">
<metadata>
Created by potrace 1.14, written by Peter Selinger 2001-2017
</metadata>
<g transform="translate(0.000000,700.000000) scale(0.100000,-0.100000)"
fill="#000000" stroke="none">
<path d="M895 6984 c-236 -42 -434 -150 -604 -330 -130 -137 -210 -285 -265
-489 l-21 -80 0 -2585 0 -2585 21 -80 c55 -204 135 -352 265 -489 173 -183
370 -289 613 -331 78 -13 394 -15 2596 -15 2766 0 2591 -4 2780 62 304 106
552 354 658 658 66 189 62 14 62 2780 0 2766 4 2591 -62 2780 -106 304 -354
552 -658 658 -189 66 -12 62 -2789 61 -2133 -1 -2528 -3 -2596 -15z m3888
-560 c125 -45 190 -87 292 -189 104 -103 161 -203 195 -339 20 -78 20 -118 20
-2396 0 -2278 0 -2318 -20 -2396 -34 -136 -91 -236 -195 -339 -102 -102 -167
-144 -292 -189 l-88 -31 -1195 0 -1195 0 -88 31 c-125 45 -190 87 -293 190
-79 78 -98 104 -137 185 -84 174 -77 -46 -77 2549 0 2591 -6 2376 75 2546 75
155 224 294 386 360 133 54 93 53 1354 51 l1170 -2 88 -31z m1455 -1330 c37
-24 52 -73 52 -174 l0 -90 105 0 c101 0 106 -1 136 -28 27 -24 33 -37 37 -84
5 -63 -14 -114 -50 -137 -14 -9 -62 -16 -124 -19 l-102 -5 -4 -101 c-2 -65 -9
-109 -18 -124 -32 -48 -130 -68 -190 -37 -52 27 -60 49 -60 162 l0 103 -82 0
c-160 0 -198 28 -198 142 0 64 3 72 29 99 29 29 31 29 140 29 l111 0 0 103 c0
119 17 159 72 176 42 13 115 5 146 -15z m-5285 1 c83 -21 133 -50 192 -109
159 -159 163 -411 10 -575 -89 -95 -194 -136 -330 -129 -152 8 -282 96 -348
236 -30 63 -32 74 -32 177 0 99 3 116 27 168 86 183 290 282 481 232z m-52
-2375 c19 -6 46 -22 60 -36 21 -23 24 -36 27 -135 l4 -109 104 0 c100 0 105
-1 135 -28 27 -24 33 -37 37 -85 9 -117 -27 -149 -174 -155 l-102 -4 -4 -102
c-2 -65 -9 -109 -18 -124 -32 -48 -130 -68 -190 -37 -52 27 -60 49 -60 162 l0
103 -82 0 c-160 0 -198 28 -198 142 0 65 2 72 31 99 30 28 34 29 140 29 l109
0 0 103 c0 84 4 108 20 134 28 46 90 63 161 43z m5422 -32 c31 -15 81 -50 111
-78 173 -164 178 -427 11 -595 -62 -62 -135 -99 -228 -116 -172 -32 -357 64
-438 229 -29 58 -34 80 -37 160 -4 78 -1 102 18 155 40 110 112 192 209 238
75 36 91 38 196 36 84 -2 109 -7 158 -29z"/>
<path d="M2311 4973 c-10 -19 -481 -1290 -481 -1298 0 -3 76 -5 169 -5 l168 0
43 120 42 120 266 -2 265 -3 41 -117 41 -118 168 0 c92 0 167 3 167 8 0 4
-109 301 -241 660 l-242 652 -198 0 c-179 0 -199 -2 -208 -17z m298 -564 c45
-129 81 -241 81 -247 0 -9 -47 -12 -175 -12 -96 0 -175 3 -175 8 0 25 175 510
181 500 4 -7 43 -119 88 -249z"/>
<path d="M3380 4331 l0 -661 329 0 c251 0 349 4 417 15 225 40 334 156 334
360 0 145 -61 254 -169 306 l-51 24 33 17 c92 47 144 156 134 279 -11 125 -71
215 -174 261 -95 42 -164 49 -515 55 l-338 6 0 -662z m631 396 c42 -28 59 -60
59 -112 0 -52 -17 -84 -59 -112 -31 -21 -45 -23 -162 -23 l-129 0 0 135 0 135
129 0 c117 0 131 -2 162 -23z m27 -505 c21 -10 48 -34 60 -53 21 -30 23 -43
20 -107 -3 -70 -5 -76 -40 -107 -49 -45 -91 -55 -235 -55 l-123 0 0 177 0 176
141 -6 c110 -5 149 -10 177 -25z"/>
<path d="M4760 4330 l0 -660 170 0 170 0 -2 658 -3 657 -167 3 -168 2 0 -660z"/>
<path d="M2680 3140 c-67 -9 -228 -46 -267 -61 -22 -8 -23 -12 -23 -150 0 -77
3 -139 8 -137 4 2 45 22 92 46 86 43 217 82 274 82 127 0 226 -89 226 -202 0
-114 -33 -156 -340 -425 l-259 -228 -1 -127 0 -128 475 0 475 0 0 125 0 125
-285 2 -286 3 167 145 c218 190 319 296 358 380 29 60 31 73 31 170 0 93 -3
111 -26 160 -47 97 -129 164 -249 201 -75 23 -266 33 -370 19z"/>
<path d="M3847 2733 l-267 -398 0 -142 0 -143 295 0 295 0 0 -120 0 -120 160
0 160 0 0 120 0 120 95 0 95 0 0 120 0 120 -95 0 -95 0 -2 418 -3 417 -186 3
-185 2 -267 -397z m318 -430 c-3 -10 -49 -13 -186 -13 -141 0 -180 3 -176 13
2 6 85 131 183 277 l179 264 3 -264 c1 -146 0 -270 -3 -277z"/>
</g>
</svg>
